<svg xmlns="http://www.w3.org/2000/svg" width="2048" height="2048" viewBox="0 0 2048 2048" version="1.1">
	<path d="M 990.500 228.026 C 888.943 233.943, 794.626 254.565, 706.105 290.206 C 582.644 339.915, 476.045 412.582, 388.301 506.847 C 273.242 630.457, 195.044 787.232, 165.513 953.500 C 149.857 1041.644, 147.030 1121.134, 156.568 1205 C 170.680 1329.089, 214.278 1456.951, 278.809 1563.500 C 316.504 1625.739, 355.901 1675.981, 407.455 1727.556 C 450.488 1770.606, 486.446 1800.080, 538.352 1834.848 C 588.244 1868.267, 639.238 1895.359, 694.500 1917.805 C 702.750 1921.155, 711.283 1924.820, 713.461 1925.949 C 715.640 1927.077, 718.021 1928, 718.753 1928 C 719.484 1928, 728.726 1930.951, 739.291 1934.559 C 826.273 1964.258, 900.487 1978.782, 992.428 1984.100 C 1017.551 1985.554, 1079.575 1984.704, 1101.500 1982.606 C 1167.465 1976.295, 1220.631 1966.735, 1272.500 1951.859 C 1370.005 1923.893, 1468.559 1875.583, 1552 1814.851 C 1669.919 1729.024, 1775.239 1598.025, 1835.282 1462.500 C 1881.391 1358.426, 1905.967 1250.810, 1910.004 1135.309 C 1912.291 1069.842, 1905.436 992.653, 1891.371 925.500 C 1881.738 879.509, 1864.520 823.990, 1844.542 774.500 C 1810.572 690.346, 1758.371 604.321, 1699.335 535.204 L 1695.665 530.908 1700.201 526.204 C 1718.369 507.358, 1729.436 486.682, 1735.143 460.919 C 1738.189 447.171, 1738.456 421.967, 1735.691 409.125 C 1731.525 389.770, 1724.238 372.497, 1713.774 357.174 C 1707.084 347.376, 1690.686 330.959, 1680.957 324.316 C 1622.626 284.493, 1544.197 296.080, 1501.016 350.902 C 1497.507 355.356, 1494.289 359, 1493.864 359 C 1493.439 359, 1487.934 355.886, 1481.631 352.079 C 1424.065 317.313, 1351.394 285.052, 1285.500 265.012 C 1223.592 246.183, 1161.665 234.689, 1094 229.465 C 1069.764 227.595, 1011.750 226.788, 990.500 228.026 M 193.365 363.493 C 169.613 368.659, 149.963 384.648, 139.478 407.341 C 134.665 417.758, 132.750 426.640, 132.758 438.500 C 132.772 456.903, 137.901 471.872, 149.352 486.924 C 152.458 491.008, 155 494.664, 155 495.050 C 155 496.015, 168.499 505.229, 173.981 508.006 C 191.913 517.090, 216.029 519.054, 234.253 512.915 C 269.217 501.136, 291.860 466.544, 287.881 430.986 C 284.882 404.174, 266.577 379.548, 241.357 368.394 C 227.775 362.388, 207.819 360.350, 193.365 363.493 M 916.500 686.593 C 915.400 686.769, 904.150 687.390, 891.500 687.972 C 878.850 688.555, 861.075 689.472, 852 690.012 C 842.925 690.551, 811.425 692.343, 782 693.993 C 752.575 695.644, 719.050 697.651, 707.500 698.454 C 695.950 699.256, 677.275 700.389, 666 700.969 C 654.725 701.550, 643.899 702.270, 641.942 702.568 L 638.385 703.111 639.628 714.305 C 640.902 725.764, 642.343 743.633, 648.557 825 C 650.510 850.575, 652.303 872.400, 652.541 873.500 C 652.779 874.600, 653.626 884.725, 654.425 896 C 658.268 950.300, 658.255 950.161, 659.838 950.768 C 661.448 951.386, 710.686 948.841, 742.500 946.495 C 775.641 944.052, 793.217 943.651, 795.417 945.290 C 799.135 948.059, 797.219 956, 792.832 956 C 791.216 956, 790.998 956.518, 791.463 959.250 C 791.768 961.038, 792.912 971.275, 794.007 982 C 795.101 992.725, 796.221 1002.625, 796.495 1004 C 796.770 1005.375, 797.896 1017.975, 798.997 1032 C 800.099 1046.025, 802.121 1071.225, 803.490 1088 C 806.963 1130.559, 808.681 1153.032, 810.982 1186 C 813.133 1216.811, 818.479 1291.695, 822.476 1347 C 826.321 1400.209, 827.768 1421.207, 830.573 1464.500 C 831.998 1486.500, 833.714 1508.325, 834.385 1513 L 835.606 1521.500 868.553 1522.113 C 886.674 1522.450, 915.901 1523.073, 933.502 1523.497 L 965.504 1524.267 965.209 1515.384 C 965.047 1510.498, 964.022 1494.800, 962.932 1480.500 C 960.706 1451.307, 959.163 1428.954, 955.512 1373 C 954.130 1351.825, 952.547 1328.200, 951.993 1320.500 C 948.298 1269.123, 943.050 1193.030, 943.015 1190.320 C 943.007 1189.670, 941.987 1188.995, 940.750 1188.820 C 939.102 1188.585, 938.500 1187.831, 938.500 1186 C 938.500 1183.514, 938.565 1183.497, 950 1182.882 C 956.325 1182.541, 970.388 1182.204, 981.250 1182.132 L 1001 1182 1001 1178.546 C 1001 1176.647, 999.896 1167.280, 998.547 1157.732 C 997.197 1148.183, 994.289 1125.775, 992.084 1107.935 C 989.878 1090.096, 986.282 1062.675, 984.091 1047 C 981.900 1031.325, 979.169 1010.400, 978.021 1000.500 C 976.874 990.600, 973.033 959.325, 969.487 931 C 960.506 859.267, 954 803.572, 954 798.419 C 954 794.115, 953.405 789.398, 946.438 738.500 C 944.481 724.200, 942.614 706.538, 942.290 699.250 L 941.700 686 930.100 686.136 C 923.720 686.211, 917.600 686.417, 916.500 686.593 M 882.500 722.116 C 872.600 722.564, 855.500 723.468, 844.500 724.124 C 833.500 724.780, 822.370 725.250, 819.767 725.169 C 815.471 725.033, 814.974 725.256, 814.393 727.571 C 814.041 728.974, 814.262 732.682, 814.885 735.811 C 815.508 738.940, 816.957 747.350, 818.104 754.500 C 819.252 761.650, 821.232 772.225, 822.505 778 C 823.777 783.775, 825.585 792.875, 826.522 798.221 C 827.459 803.568, 828.871 808.478, 829.660 809.133 C 830.780 810.062, 834.859 809.751, 848.297 807.711 C 857.759 806.274, 878.550 803.462, 894.500 801.460 C 912.140 799.247, 924.381 797.260, 925.750 796.388 C 928.399 794.700, 928.398 794.718, 926.456 776 C 925.629 768.025, 924.100 752.855, 923.059 742.289 C 922.018 731.723, 920.877 722.610, 920.524 722.039 C 919.800 720.867, 909.633 720.888, 882.500 722.116 M 760 731.613 C 738.587 734.945, 693.972 741.097, 685.500 741.886 C 681.650 742.245, 677.938 742.893, 677.250 743.328 C 675.412 744.489, 675.706 750.813, 678.473 769.657 C 680.858 785.906, 685.460 813.002, 686.618 817.614 C 686.927 818.845, 688.054 820.644, 689.123 821.611 C 690.980 823.292, 691.824 823.251, 708.283 820.688 C 751.574 813.948, 771.422 810.980, 783 809.516 C 793.025 808.248, 795.833 807.540, 797.183 805.940 C 799.162 803.593, 799.117 803.148, 794.486 779.500 C 792.655 770.150, 790.892 760.700, 790.567 758.500 C 789.020 748.013, 785.572 731.368, 784.714 730.250 C 783.384 728.517, 777.986 728.815, 760 731.613 M 1362 812.002 C 1345.601 812.713, 1313.232 814.905, 1308.105 815.651 L 1304.711 816.145 1305.357 825.249 C 1305.712 830.257, 1306.904 841.587, 1308.005 850.427 C 1309.105 859.267, 1310.342 870.100, 1310.753 874.500 L 1311.500 882.500 1333.500 882.106 C 1345.600 881.889, 1360 881.439, 1365.500 881.106 L 1375.500 880.500 1376.743 872 C 1377.426 867.325, 1379.341 852.925, 1380.998 840 C 1382.655 827.075, 1384.269 815.263, 1384.585 813.750 C 1385.145 811.065, 1385.056 811.004, 1380.829 811.187 C 1378.448 811.289, 1369.975 811.656, 1362 812.002 M 1214 816.187 C 1202.175 816.670, 1189.463 816.924, 1185.750 816.750 C 1182.037 816.577, 1179 816.822, 1179 817.295 C 1179 817.769, 1179.430 823.408, 1179.955 829.828 C 1180.480 836.248, 1181.683 851.027, 1182.629 862.672 L 1184.349 883.844 1189.924 884.464 C 1192.991 884.805, 1206.843 884.622, 1220.708 884.058 C 1234.572 883.494, 1247.357 883.321, 1249.118 883.674 L 1252.321 884.314 1251.636 874.407 C 1251.259 868.958, 1250.525 858.875, 1250.006 852 C 1249.486 845.125, 1249.047 833.987, 1249.031 827.250 L 1249 815 1242.250 815.154 C 1238.537 815.238, 1225.825 815.703, 1214 816.187 M 905 832.178 C 899.225 832.655, 883.925 833.917, 871 834.982 C 858.075 836.048, 841.425 837.199, 834 837.539 C 821.628 838.107, 820.224 838.369, 817.195 840.673 C 813.405 843.554, 813.362 845.927, 817.065 847.702 L 819.606 848.920 821.398 874.710 C 824.430 918.316, 824.606 920.034, 826.199 921.628 C 827.493 922.921, 831.705 922.976, 859.091 922.058 C 876.366 921.479, 897.518 921.004, 906.095 921.002 C 925.412 920.999, 925.001 921.273, 924.999 908.421 C 924.996 889.609, 921.953 833.648, 920.861 832.333 C 920.253 831.600, 918.798 831.070, 917.628 831.156 C 916.457 831.242, 910.775 831.702, 905 832.178 M 742 840.026 C 689.499 842.489, 688.416 842.607, 685.874 846.177 C 684.225 848.493, 683.937 849.990, 684.413 853.780 C 684.739 856.376, 685.707 870.646, 686.565 885.490 C 688.430 917.756, 687.962 916.579, 698.500 915.558 C 706.547 914.779, 734.907 913.383, 762.500 912.408 C 776.954 911.898, 781.901 911.389, 783.176 910.281 C 784.098 909.479, 786.910 905.756, 789.426 902.007 C 794.435 894.540, 795.116 890.825, 792.073 887.564 C 790.403 885.775, 789.939 882.520, 788.591 863.124 C 787.690 850.163, 786.556 840.170, 785.895 839.374 C 785.268 838.618, 783.573 838.060, 782.128 838.133 C 780.682 838.207, 762.625 839.058, 742 840.026 M 1379.500 924.044 C 1348.921 926.398, 1309.726 929.940, 1309.277 930.390 C 1308.986 930.681, 1309.466 939.600, 1310.344 950.210 C 1311.223 960.819, 1312.471 976.106, 1313.118 984.179 C 1313.765 992.252, 1314.607 999.365, 1314.990 999.984 C 1315.506 1000.819, 1321.114 1000.826, 1336.593 1000.012 C 1359.675 998.798, 1394.164 996.169, 1394.755 995.578 C 1394.963 995.371, 1394.653 981.618, 1394.066 965.018 C 1393.480 948.417, 1393 932.172, 1393 928.917 C 1393 923.396, 1392.850 923.012, 1390.750 923.175 C 1389.513 923.272, 1384.450 923.663, 1379.500 924.044 M 1215.174 928.749 L 1188.848 929.034 1189.391 931.767 C 1190.725 938.481, 1192.126 947.584, 1193.968 961.500 C 1195.060 969.750, 1196.935 982.274, 1198.134 989.332 L 1200.315 1002.163 1203.408 1001.592 C 1205.108 1001.277, 1213.361 1000.108, 1221.746 998.993 C 1237.548 996.893, 1260.118 993.215, 1260.686 992.647 C 1260.983 992.350, 1262.938 940.489, 1262.981 931.750 L 1263 928 1252.250 928.233 C 1246.338 928.361, 1229.653 928.593, 1215.174 928.749 M 912.500 953.539 C 888.362 955.051, 846.943 957.079, 826.783 957.737 C 816.651 958.067, 811.738 958.610, 811.016 959.481 C 809.881 960.848, 811.816 994.607, 814.513 1020.500 C 815.315 1028.200, 816.268 1038.877, 816.631 1044.227 C 817.110 1051.272, 817.734 1054.343, 818.896 1055.365 C 820.594 1056.859, 823.281 1056.732, 878.500 1052.559 C 889.500 1051.727, 908.850 1050.548, 921.500 1049.939 C 940.583 1049.019, 944.793 1048.547, 946.221 1047.165 C 948.068 1045.378, 947.849 1041.390, 943.512 998 C 942.715 990.025, 941.541 976.975, 940.904 969 C 940.266 961.025, 939.297 953.938, 938.750 953.250 C 938.203 952.563, 936.573 952.064, 935.128 952.143 C 933.682 952.222, 923.500 952.850, 912.500 953.539 M 1366.551 1045.088 C 1362.730 1045.520, 1351.350 1046.069, 1341.263 1046.309 C 1331.176 1046.548, 1322.776 1046.914, 1322.597 1047.122 C 1322.418 1047.330, 1322.631 1061.450, 1323.071 1078.500 C 1323.510 1095.550, 1323.899 1110.963, 1323.935 1112.750 L 1324 1116 1331.250 1116.003 C 1335.237 1116.004, 1343.450 1115.534, 1349.500 1114.957 C 1379.262 1112.120, 1401.541 1109.762, 1401.907 1109.410 C 1402.131 1109.195, 1403.352 1095.402, 1404.619 1078.760 C 1405.887 1062.117, 1407.096 1047.529, 1407.306 1046.342 C 1407.685 1044.198, 1407.572 1044.184, 1390.594 1044.243 C 1381.192 1044.276, 1370.373 1044.656, 1366.551 1045.088 M 1230 1046.032 C 1217.625 1046.384, 1207.388 1046.745, 1207.250 1046.836 C 1206.028 1047.639, 1210.891 1111.224, 1212.281 1112.614 C 1212.905 1113.238, 1245.739 1109.924, 1261.500 1107.647 L 1269.500 1106.491 1269.748 1100.495 C 1269.885 1097.198, 1270.672 1084.067, 1271.498 1071.316 C 1272.324 1058.564, 1273 1047.427, 1273 1046.566 C 1273 1044.826, 1272.626 1044.822, 1230 1046.032 M 869.500 1074.562 C 859.050 1075.286, 846.675 1076.441, 842 1077.129 C 837.325 1077.817, 831.363 1078.272, 828.752 1078.139 C 824.519 1077.925, 823.877 1078.177, 822.839 1080.454 C 821.881 1082.557, 822.129 1084.734, 824.240 1092.755 C 825.651 1098.115, 830.254 1115.775, 834.469 1132 C 838.684 1148.225, 842.679 1162.625, 843.348 1164 C 844.986 1167.371, 849.759 1167.688, 860.851 1165.165 C 869.683 1163.156, 873.013 1162.587, 925.909 1154.030 C 946.694 1150.668, 956.806 1148.622, 957.863 1147.565 C 959.524 1145.904, 959.178 1142.192, 955.481 1122 C 954.625 1117.325, 952.873 1105.064, 951.588 1094.754 C 950.303 1084.444, 948.690 1075.332, 948.004 1074.504 C 946.940 1073.223, 942.439 1073.018, 917.628 1073.123 C 901.607 1073.191, 879.950 1073.838, 869.500 1074.562 M 1341.500 1149.866 L 1332.500 1150.500 1332.565 1157.500 C 1332.625 1164.062, 1338.611 1200.752, 1339.983 1202.973 C 1341.251 1205.025, 1351.128 1205.988, 1377.589 1206.642 L 1404.677 1207.310 1405.312 1196.905 C 1405.661 1191.182, 1406.254 1178.287, 1406.629 1168.250 L 1407.312 1150 1395.316 1150 C 1388.718 1150, 1375.935 1149.827, 1366.910 1149.616 C 1357.884 1149.404, 1346.450 1149.517, 1341.500 1149.866 M 1426 1287.115 C 1421.944 1287.922, 1403.048 1290.571, 1344 1298.612 C 1333.275 1300.072, 1324.410 1301.334, 1324.301 1301.416 C 1324.191 1301.498, 1325.179 1306.951, 1326.497 1313.533 C 1327.814 1320.115, 1329.844 1333.150, 1331.007 1342.500 C 1332.169 1351.850, 1333.769 1363.271, 1334.560 1367.881 C 1335.352 1372.491, 1336 1376.689, 1336 1377.210 C 1336 1377.732, 1337.237 1377.894, 1338.750 1377.570 C 1340.263 1377.246, 1348.925 1376.331, 1358 1375.537 C 1382.903 1373.357, 1436.392 1366.990, 1437.294 1366.098 C 1437.730 1365.666, 1437.171 1357.030, 1436.051 1346.906 C 1434.154 1329.755, 1432.032 1300.003, 1432.010 1290.250 C 1432.004 1287.912, 1431.662 1286.049, 1431.250 1286.110 C 1430.838 1286.170, 1428.475 1286.622, 1426 1287.115 M 1422.500 1404.108 C 1417 1404.558, 1399.939 1405.600, 1384.588 1406.425 C 1368.747 1407.276, 1356.227 1408.373, 1355.638 1408.962 C 1355.067 1409.533, 1352.778 1410.007, 1350.550 1410.015 C 1343.742 1410.041, 1343.745 1410.034, 1345.463 1424.579 C 1347.650 1443.076, 1350.116 1459.582, 1350.860 1460.697 C 1351.402 1461.510, 1436.878 1464.455, 1437.646 1463.687 C 1437.784 1463.549, 1437.624 1449.838, 1437.290 1433.218 C 1436.690 1403.358, 1436.658 1403.002, 1434.592 1403.145 C 1433.441 1403.225, 1428 1403.659, 1422.500 1404.108 M 207.500 1662.413 C 193.325 1665.692, 183.551 1671.366, 173.636 1682.076 C 166.298 1690.001, 160.860 1700.174, 158.441 1710.500 C 156.076 1720.595, 156.885 1736.216, 160.240 1745.242 C 166.648 1762.481, 176.815 1773.665, 194.127 1782.521 L 205.412 1788.293 219.456 1788.387 C 232.974 1788.477, 233.813 1788.361, 241.864 1785.269 C 253.443 1780.822, 258.322 1777.749, 265.954 1770.099 C 273.368 1762.667, 279.730 1751.541, 282.592 1741 C 285.009 1732.100, 285.020 1715.547, 282.614 1707.500 C 278.167 1692.623, 266.313 1677.192, 254 1670.249 C 240.192 1662.462, 221.155 1659.255, 207.500 1662.413 M 1746.713 1723.400 C 1744.081 1724.120, 1740.256 1726.027, 1738.213 1727.637 C 1733.812 1731.106, 1727.114 1743.841, 1727.046 1748.869 C 1726.985 1753.359, 1733.090 1763.328, 1738.141 1766.987 C 1750.731 1776.108, 1768.662 1771.507, 1775.114 1757.500 C 1777.339 1752.670, 1777.604 1742.380, 1775.625 1737.645 C 1770.990 1726.552, 1758.210 1720.255, 1746.713 1723.400 M 368.043 1743.240 C 356.509 1744.938, 345.133 1752.828, 339.624 1762.950 C 336.347 1768.970, 333.633 1781.163, 334.494 1785.997 C 334.837 1787.924, 336.089 1792.568, 337.277 1796.318 C 339.027 1801.841, 340.511 1804.236, 345.092 1808.932 C 365.099 1829.442, 397.311 1824.562, 409.326 1799.201 C 412.264 1792.997, 412.500 1791.721, 412.500 1782 C 412.500 1772.679, 412.196 1770.852, 409.797 1765.732 C 406.381 1758.443, 397.673 1749.655, 390.703 1746.464 C 384.106 1743.444, 375.230 1742.181, 368.043 1743.240" stroke="none" fill="black" fill-rule="evenodd"/>
</svg>